<?xml version="1.0" encoding="utf-8"?>
<!-- Generator: Adobe Illustrator 21.1.0, SVG Export Plug-In . SVG Version: 6.00 Build 0)  -->
<svg version="1.1" id="Layer_1" xmlns:sketch="http://www.bohemiancoding.com/sketch/ns"
	 xmlns="http://www.w3.org/2000/svg" xmlns:xlink="http://www.w3.org/1999/xlink" x="0px" y="0px" viewBox="0 0 28.7 31"
	 style="enable-background:new 0 0 28.7 31;" xml:space="preserve">
<style type="text/css">
	.st0{fill:#929292;}
</style>
<title></title>
<desc></desc>
<g id="Page-1">
	<g id="icon-2-mail-envelope-open">
		<path id="mail-envelope-open" class="st0" d="M19.1,19.5l-2.5,2.3h0.1l0,0l0,0h-3.9h1.9l0,0h-2.6l-2.6-2.3H19.1L19.1,19.5z
			 M20.4,18.4l3.7-3.3V5.8c0-0.6-0.5-1.2-1.1-1.2H5.7c-0.6,0-1.1,0.5-1.1,1.2v9.4l3.6,3.2H20.4L20.4,18.4z M10.4,3.4l4-3.4l3.9,3.4
			H23c1.3,0,2.3,1,2.3,2.3v3.9l3.4,3v16.1c0,1.3-1,2.3-2.3,2.3H2.3C1,31,0,30,0,28.7V12.6l3.4-3V5.7c0-1.3,1-2.3,2.3-2.3L10.4,3.4
			L10.4,3.4L10.4,3.4z M16.6,3.4l-2.2-2l-2.2,2H16.6L16.6,3.4L16.6,3.4z M25.3,11.1l1.7,1.5l-1.7,1.5V11.1L25.3,11.1L25.3,11.1z
			 M3.4,14.2l-1.7-1.5l1.7-1.5V14.2L3.4,14.2L3.4,14.2z M10.9,23l-8,6.9h23l-8-6.9H10.9L10.9,23z M27.2,29.5l-8.8-7.7l9.2-8.1v7.5
			v7.5C27.6,29,27.4,29.3,27.2,29.5L27.2,29.5L27.2,29.5z M1.5,29.5l8.8-7.7l-9.2-8.1v7.5v7.5C1.1,29,1.3,29.3,1.5,29.5L1.5,29.5
			L1.5,29.5z M6.9,8v1.1h14.9V8H6.9L6.9,8z M6.9,11.5v1.1h14.9v-1.1H6.9L6.9,11.5z M6.9,14.9V16h14.9v-1.1H6.9L6.9,14.9z"/>
	</g>
</g>
</svg>
