<?xml version="1.0" encoding="utf-8"?>
<!-- Generator: Adobe Illustrator 21.1.0, SVG Export Plug-In . SVG Version: 6.00 Build 0)  -->
<svg version="1.1" xmlns="http://www.w3.org/2000/svg" xmlns:xlink="http://www.w3.org/1999/xlink" x="0px" y="0px"
	 viewBox="0 0 280.8 75.8" style="enable-background:new 0 0 280.8 75.8;" xml:space="preserve">
<style type="text/css">
	.st0{display:none;}
	.st1{fill:#8BA5CE;}
	.st2{fill:#0D3C74;}
	.st3{fill:#23365A;}
</style>
<g id="Guide" class="st0">
</g>
<g id="CMYK">
	<g>
		<path class="st1" d="M128,17.7c3.1,1.2,5.1,3.1,5.1,3.1c0-0.9,0.3-1.9,0.6-2.7c0,0-1-1.8-3.9-3.8c-3.1-2.1-6.6-2.7-6.6-2.7
			c-0.7,1.6-1.2,3.2-1.5,5C121.7,16.6,124.3,16.3,128,17.7z"/>
		<path class="st1" d="M130.2,11.5c2.9,2.8,4,5.6,4,5.6c0.5-0.9,1.3-1.6,2.1-2.2c0,0-1.1-3.4-2.8-5.9c-1.8-2.5-4.6-4.6-4.6-4.6
			c-1.4,1.1-2.6,2.3-3.7,3.7C125.2,8.2,128.1,9.5,130.2,11.5z"/>
		<path class="st1" d="M135.4,8c1.3,3.4,1.6,6.6,1.6,6.6c0.9-0.5,2-0.8,3-0.9c0,0,0.1-3.2-0.7-6.6c-0.8-3.9-1.8-6.3-1.8-6.3
			c-1.7,0.3-3.4,0.8-4.9,1.5C132.6,2.2,134.4,5.7,135.4,8z"/>
		<path class="st1" d="M152.7,17.7c-3.1,1.2-5.1,3.1-5.1,3.1c0-0.9-0.3-1.9-0.6-2.7c0,0,1-1.8,3.9-3.8c3.1-2.1,6.6-2.7,6.6-2.7
			c0.7,1.6,1.2,3.2,1.5,5C159,16.6,156.5,16.3,152.7,17.7z"/>
		<path class="st1" d="M150.6,11.5c-2.9,2.8-4,5.6-4,5.6c-0.5-0.9-1.3-1.6-2.1-2.2c0,0,1.1-3.4,2.8-5.9c1.8-2.5,4.6-4.6,4.6-4.6
			c1.4,1.1,2.6,2.3,3.7,3.7C155.6,8.2,152.7,9.5,150.6,11.5z"/>
		<path class="st1" d="M145.4,8c-1.3,3.4-1.7,6.6-1.7,6.6c-0.9-0.5-2-0.8-3-0.9c0,0-0.1-3.2,0.7-6.6c0.8-3.9,1.8-6.3,1.8-6.3
			c1.7,0.3,3.4,0.8,4.9,1.5C148.1,2.2,146.3,5.7,145.4,8z"/>
	</g>
	<g>
		<path class="st2" d="M130.6,29.2c3.6-1.7,7.3-1.4,7.3-1.4c-1.3-0.5-2.4-1.3-3.3-2.4c0,0-3.3-0.4-5.8,0.1c-3.8,0.8-5.5,2.1-5.5,2.1
			c0.8,1.6,1.8,3,2.9,4.3C126.3,31.9,127.9,30.4,130.6,29.2z"/>
		<path class="st2" d="M127.7,23.7c3.7-0.2,6.3,0.8,6.3,0.8c-0.5-0.8-0.8-1.8-0.9-2.7c0,0-2.9-1.7-5.7-2c-3.8-0.5-5.9,0.2-5.9,0.2
			c0,1.8,0.3,3.5,0.9,5.1C122.4,25,124.8,23.8,127.7,23.7z"/>
		<path class="st2" d="M140.4,32c5.3,0,7.6,4.6,7.6,4.6c1.7-0.7,3.2-1.7,4.5-2.8c0,0-4.5-5.6-12.2-5.6c-7.7,0-12.2,5.6-12.2,5.6
			c1.4,1.2,2.9,2.1,4.5,2.8C132.8,36.6,135.1,32,140.4,32z"/>
		<path class="st2" d="M150.2,29.2c-3.6-1.7-7.3-1.4-7.3-1.4c1.3-0.5,2.4-1.3,3.3-2.4c0,0,3.3-0.4,5.8,0.1c3.8,0.8,5.5,2.1,5.5,2.1
			c-0.8,1.6-1.8,3-2.9,4.3C154.5,31.9,152.9,30.4,150.2,29.2z"/>
		<path class="st2" d="M153,23.7c-3.7-0.2-6.3,0.8-6.3,0.8c0.5-0.8,0.8-1.8,0.9-2.7c0,0,2.9-1.7,5.7-2c3.8-0.5,5.9,0.2,5.9,0.2
			c0,1.8-0.3,3.5-0.9,5.1C158.4,25,156,23.8,153,23.7z"/>
	</g>
	<g>
		<path class="st2" d="M4.2,56.4h2v1.5H0.5v-1.5h2V43.6h-2v-1.5h6.5c3.6,0,6,1.6,6,5c0,3.4-2.5,5-6,5H4.2V56.4z M4.2,43.7v6.7h2.8
			c3,0,4.3-1.2,4.3-3.4s-1.3-3.4-4.3-3.4H4.2z"/>
		<path class="st2" d="M25,54.7c-0.5,2-2.4,3.5-5.1,3.5c-3.4,0-5.5-2.1-5.5-5.9c0-3.6,2.2-5.9,5.5-5.9c3.6,0,5.9,2.8,5.4,6.8h-9.2
			c0.1,1.7,1.4,3.5,3.7,3.5c1.6,0,2.7-0.7,3.3-2H25z M23.6,51.6c0-2.1-1.6-3.8-3.8-3.8s-3.8,1.6-3.8,3.8H23.6z"/>
		<path class="st2" d="M31.1,56.5h1.8v1.5h-5.3v-1.5h1.8v-8.4h-1.8v-1.5h1.8H31v1.6c0.7-1.2,2.3-2.4,4.6-1.6v1.6
			c-2.7-0.8-4.4,0.7-4.4,3.3V56.5z"/>
		<path class="st2" d="M48.8,56.5h1.8v1.5h-5.3v-1.5h1.8v-4.8c0-2.7-1.6-3.8-3.3-3.8c-1.7,0-3.2,1.2-3.2,3.9v4.7h1.8v1.5H37v-1.5
			h1.8v-8.4H37v-1.5h1.8h1.6v1.6c0.6-0.9,1.9-1.8,3.7-1.8c2.5,0,4.7,1.4,4.7,5.3V56.5z"/>
		<path class="st2" d="M57.6,46.3c3.5,0,5.5,2.5,5.5,5.9c0,3.4-2,5.9-5.5,5.9c-3.5,0-5.5-2.5-5.5-5.9C52.1,48.8,54.1,46.3,57.6,46.3
			z M57.6,56.6c2.2,0,3.8-1.6,3.8-4.4s-1.6-4.4-3.8-4.4c-2.2,0-3.8,1.6-3.8,4.4S55.4,56.6,57.6,56.6z"/>
		<path class="st2" d="M76,56.5h1.8v1.5h-3.4v-1.6c-0.7,1-2.1,1.9-3.9,1.9c-3.2,0-5.3-2.5-5.3-5.9c0-3.4,2.1-5.9,5.3-5.9
			c1.7,0,3.2,0.8,3.9,1.9v-4.7h-1.8v-1.5H76V56.5z M70.6,47.9c-2.1,0-3.8,1.5-3.8,4.4c0,2.9,1.7,4.4,3.8,4.4c2.1,0,3.8-1.5,3.8-4.4
			C74.4,49.4,72.7,47.9,70.6,47.9z"/>
		<path class="st2" d="M85.4,42.1h7.4c3,0,5.2,1.6,5.2,4.6c0,2.5-1.6,4.1-3.9,4.5l2.6,5.3h2.1v1.6h-3.3l-3.3-6.7h-3.1v5.2h1.7v1.5
			h-5.5v-1.5h2V43.6h-2V42.1z M89.1,43.7v5.9h3.7c2.4,0,3.4-1.2,3.4-2.9c0-1.8-1-2.9-3.4-2.9H89.1z"/>
		<path class="st2" d="M104.3,56.5h1.8v1.5h-5.3v-1.5h1.8v-8.4h-1.8v-1.5h1.8h1.7V56.5z M102.4,44.2h1.9v-2.1h-1.9V44.2z"/>
		<path class="st2" d="M118.7,53.8c-0.7,2.6-2.4,4.4-5.5,4.4c-3.5,0-5.5-2.5-5.5-5.9c0-3.4,2-5.9,5.5-5.9c1.6,0,3.1,0.8,3.8,1.9
			v-1.6h1.6v4.1h-1.8c-0.5-1.5-1.5-2.9-3.5-2.9c-2.2,0-3.8,1.6-3.8,4.4s1.6,4.4,3.8,4.4c1.9,0,3.2-1.2,3.7-2.9H118.7z"/>
		<path class="st2" d="M129.9,46.6h3.4v1.5h-1.8v8.4h1.8v1.5h-3.4v-1.6c-0.7,1.1-2.2,1.9-3.9,1.9c-3.2,0-5.3-2.5-5.3-5.9
			c0-3.4,2.1-5.9,5.3-5.9c1.7,0,3.2,0.8,3.9,1.9V46.6z M126.2,47.9c-2.1,0-3.8,1.5-3.8,4.4c0,2.9,1.7,4.4,3.8,4.4s3.8-1.5,3.8-4.4
			C130,49.4,128.3,47.9,126.2,47.9z"/>
		<path class="st2" d="M139.2,56.5h1.8v1.5h-5.3v-1.5h1.8v-8.4h-1.8v-1.5h1.8h1.6v1.6c0.7-1.2,2.3-2.4,4.6-1.6v1.6
			c-2.7-0.8-4.4,0.7-4.4,3.3V56.5z"/>
		<path class="st2" d="M155.4,56.5h1.8v1.5h-3.4v-1.6c-0.7,1-2.1,1.9-3.9,1.9c-3.2,0-5.3-2.5-5.3-5.9c0-3.4,2.1-5.9,5.3-5.9
			c1.7,0,3.2,0.8,3.9,1.9v-4.7H152v-1.5h3.5V56.5z M150,47.9c-2.1,0-3.8,1.5-3.8,4.4c0,2.9,1.7,4.4,3.8,4.4c2.1,0,3.8-1.5,3.8-4.4
			C153.8,49.4,152.1,47.9,150,47.9z"/>
		<path class="st2" d="M164.8,56.4h2V43.6h-2v-1.5h2h2.7l6.7,14V43.6h-2v-1.5h2h3.7v1.5h-2v14.3h-2.7l-6.7-14v12.5h1.9v1.5h-5.6
			V56.4z"/>
		<path class="st2" d="M191.5,54.7c-0.5,2-2.4,3.5-5.1,3.5c-3.4,0-5.5-2.1-5.5-5.9c0-3.6,2.2-5.9,5.5-5.9c3.6,0,5.9,2.8,5.4,6.8
			h-9.2c0.1,1.7,1.4,3.5,3.7,3.5c1.6,0,2.7-0.7,3.3-2H191.5z M190.1,51.6c0-2.1-1.6-3.8-3.8-3.8c-2.2,0-3.8,1.6-3.8,3.8H190.1z"/>
		<path class="st2" d="M204.8,56.5h1.8v1.5h-3.4v-1.6c-0.7,1-2.1,1.9-3.9,1.9c-3.2,0-5.3-2.5-5.3-5.9c0-3.4,2.1-5.9,5.3-5.9
			c1.7,0,3.2,0.8,3.9,1.9v-4.7h-1.8v-1.5h3.5V56.5z M199.3,47.9c-2.1,0-3.8,1.5-3.8,4.4c0,2.9,1.7,4.4,3.8,4.4
			c2.1,0,3.8-1.5,3.8-4.4C203.1,49.4,201.4,47.9,199.3,47.9z"/>
		<path class="st2" d="M218.9,54.7c-0.5,2-2.4,3.5-5.1,3.5c-3.4,0-5.5-2.1-5.5-5.9c0-3.6,2.2-5.9,5.5-5.9c3.6,0,5.9,2.8,5.4,6.8H210
			c0.1,1.7,1.4,3.5,3.7,3.5c1.6,0,2.7-0.7,3.3-2H218.9z M217.5,51.6c0-2.1-1.6-3.8-3.8-3.8c-2.2,0-3.8,1.6-3.8,3.8H217.5z"/>
		<path class="st2" d="M225,56.5h1.8v1.5h-5.3v-1.5h1.8v-8.4h-1.8v-1.5h1.8h1.6v1.6c0.7-1.2,2.3-2.4,4.6-1.6v1.6
			c-2.7-0.8-4.4,0.7-4.4,3.3V56.5z"/>
		<path class="st2" d="M233.9,56.5h1.8v1.5h-5.3v-1.5h1.8V43.5h-1.8v-1.5h3.5V56.5z"/>
		<path class="st2" d="M246.6,46.6h3.4v1.5h-1.8v8.4h1.8v1.5h-3.4v-1.6c-0.7,1.1-2.2,1.9-3.9,1.9c-3.2,0-5.3-2.5-5.3-5.9
			c0-3.4,2.1-5.9,5.3-5.9c1.7,0,3.2,0.8,3.9,1.9V46.6z M242.9,47.9c-2.1,0-3.8,1.5-3.8,4.4c0,2.9,1.7,4.4,3.8,4.4s3.8-1.5,3.8-4.4
			C246.7,49.4,245,47.9,242.9,47.9z"/>
		<path class="st2" d="M264.2,56.5h1.8v1.5h-5.3v-1.5h1.8v-4.8c0-2.7-1.6-3.8-3.3-3.8c-1.7,0-3.2,1.2-3.2,3.9v4.7h1.8v1.5h-5.3v-1.5
			h1.8v-8.4h-1.8v-1.5h1.8h1.6v1.6c0.6-0.9,1.9-1.8,3.7-1.8c2.5,0,4.7,1.4,4.7,5.3V56.5z"/>
		<path class="st2" d="M278.5,56.5h1.8v1.5h-3.4v-1.6c-0.7,1-2.1,1.9-3.9,1.9c-3.2,0-5.3-2.5-5.3-5.9c0-3.4,2.1-5.9,5.3-5.9
			c1.7,0,3.2,0.8,3.9,1.9v-4.7H275v-1.5h3.5V56.5z M273,47.9c-2.1,0-3.8,1.5-3.8,4.4c0,2.9,1.7,4.4,3.8,4.4c2.1,0,3.8-1.5,3.8-4.4
			C276.8,49.4,275.1,47.9,273,47.9z"/>
	</g>
	<g>
		<path class="st3" d="M62.4,74l-2.6,0.7c-1,0.2-1.9,0.3-2.7,0.3c-2.6,0-4-1-4-2.9c0-0.9,0.4-2,1.3-3.2c0.7-1,1.5-1.9,2.4-2.6
			c1.1-0.8,2-1.3,2.9-1.3c1.2,0,1.8,0.6,1.8,1.7c0,0.2-0.1,0.8-0.2,1.9c-0.3,0-0.5-0.1-0.6-0.1c-0.1-0.1-0.2-0.2-0.4-0.4
			c0.1-0.6,0.2-1,0.2-1.3c0-0.6-0.3-0.8-0.9-0.8c-0.8,0-1.8,0.4-2.7,1.2c-0.8,0.7-1.5,1.5-2,2.3c-0.6,1-0.9,1.9-0.9,2.7
			c0,0.8,0.4,1.3,1.1,1.7c0.6,0.3,1.3,0.5,2.1,0.5c0.5,0,1,0,1.7-0.1c0.2,0,0.8-0.1,1.7-0.2c0.2,0,0.5-0.1,0.9-0.3
			c0.4-0.1,0.6-0.2,0.8-0.3C62.3,73.7,62.4,73.8,62.4,74"/>
		<path class="st3" d="M69,71.4l-2.3-0.8c-0.6,0-1.1,0.4-1.5,1.2c-0.2,0.3-0.4,0.9-0.8,1.9c-0.4,1-1,1.5-1.8,1.5
			c0-0.4,0.3-1,0.8-1.7c0.5-0.8,0.8-1.3,0.9-1.7c0.1-0.3,0.1-0.8,0.2-1.5c0-0.3,0.1-0.6,0.2-0.9c0.2-0.4,0.4-0.7,0.6-0.7l0.3,0
			l0.1,1c0.1,0.3,0.3,0.4,0.7,0.4h0.5c0.1,0,0.2,0,0.2,0C68.2,70.1,68.9,70.5,69,71.4"/>
		<path class="st3" d="M76.3,73.9c-0.3,0.3-1,0.6-2.1,0.7c-0.8,0.1-1.6,0.2-2.4,0.2c-1.7,0-2.5-0.5-2.5-1.4c0-1.2,0.9-2.2,2.6-3.1
			c0.6-0.3,1.2-0.5,1.9-0.7c0.6,0.1,1.1,0.3,1.3,0.3c0.5,0.1,0.7,0.5,0.7,1.1c0,0.5-0.3,0.9-1,1.3c-0.6,0.3-1.1,0.4-1.7,0.4
			c-0.9,0-1.6-0.1-2-0.4c-0.5,0.2-0.7,0.5-0.7,0.9c0,0.7,0.6,1,1.8,1c0.4,0,1,0,1.6-0.1C75.1,73.9,76,73.9,76.3,73.9 M74.8,71
			c-0.3-0.3-0.7-0.5-1.1-0.5c-0.3,0-0.6,0.1-0.8,0.2c0,0-0.3,0.1-0.8,0.4c0.3,0.5,0.7,0.7,1.2,0.7C73.9,71.8,74.4,71.6,74.8,71
			 M75.1,68c-0.6,0.6-1,0.9-1.2,0.9c-0.1,0-0.2,0-0.4-0.1c0,0-0.1-0.1-0.4-0.2l0.1-0.2c0.1-0.2,0.5-0.7,1.1-1.3l0.7-0.7
			c0.3-0.3,0.6-0.4,0.8-0.4c0.3,0,0.4,0.1,0.4,0.4C76.3,66.7,75.9,67.2,75.1,68"/>
		<path class="st3" d="M84.1,75c-0.2,0.5-0.5,0.7-0.8,0.7c-0.3,0-0.7-0.2-1.1-0.7c-0.3-0.4-0.6-0.8-0.8-1.2
			c-0.8,0.4-1.4,0.7-1.7,0.8c-0.7,0.3-1.3,0.4-1.8,0.4c-0.8,0-1.2-0.4-1.2-1.2c0-1.3,0.7-2.4,2.1-3.4c0.5-0.3,1.1-0.7,1.9-1.1
			c0.9-0.4,1.6-0.7,2-0.7c0.3,0,0.5,0.1,0.8,0.4c0.2,0.3,0.4,0.6,0.4,0.9c0,0.5-0.2,1.3-0.7,2.2c-0.4,0.9-0.6,1.4-0.6,1.5
			c0,0.5,0.1,0.8,0.2,1C82.8,74.7,83.3,74.8,84.1,75 M83.5,69.9c0-0.4-0.3-0.5-0.9-0.5c-0.9,0-1.7,0.2-2.3,0.6
			c-0.6,0.4-1.1,0.9-1.7,1.5c-0.8,0.8-1.1,1.4-1.1,1.9c0,0.3,0.1,0.5,0.4,0.6c0.2,0.1,0.5,0.2,0.8,0.2c0.9,0,1.6-0.3,2.2-0.9
			c0.2-0.2,0.6-0.7,1.3-1.7c0.4-0.6,0.8-0.9,1.2-0.9C83.5,70.4,83.5,70.2,83.5,69.9 M84,75.3L84,75.3L84,75.3L84,75.3L84,75.3v-0.2
			h0.1v0h0v0h0L84,75.3L84,75.3z"/>
		<path class="st3" d="M90.5,65.9c0,0.3-0.1,0.5-0.3,0.8c-0.1,0.1-0.4,0.6-0.9,1.3c0.2,0.2,0.5,0.3,0.8,0.5c0.3,0.2,0.4,0.5,0.4,0.8
			l0,0.2c0,0-0.2-0.1-0.7-0.2c-0.3-0.1-0.5-0.1-0.7-0.1c-0.5,0-1.3,0.6-2.4,1.7c-1,1.2-1.5,2-1.5,2.6c0,0.5,0.4,0.8,1.3,1.1
			c0.6,0.1,1.2,0.2,1.9,0.2c0.3,0,0.5,0,0.8-0.1c0,0.1,0,0.1,0.1,0.3c-0.6,0.2-1.3,0.4-1.9,0.4c-2.2,0-3.4-0.6-3.4-1.6
			c0-0.6,0.6-1.6,1.7-2.9l1.3-1.4l-0.5,0c-0.2,0-0.5,0.1-0.9,0.2c-0.7,0.3-1.2,0.4-1.3,0.4c-0.2,0-0.3-0.1-0.5-0.2
			c-0.1-0.1-0.2-0.2-0.2-0.4c0-0.4,0.4-0.6,1.3-0.6c0.1,0,0.2,0,0.4,0c0.2,0,0.3,0,0.4,0c0.8,0,1.4-0.1,1.9-0.4
			c0.5-0.3,0.9-0.7,1.3-1.3c0.1-0.2,0.4-0.8,0.9-1.9c0.1,0,0.3,0.1,0.4,0.3C90.5,65.6,90.5,65.7,90.5,65.9"/>
		<path class="st3" d="M97.8,73.9c-0.3,0.3-1,0.6-2.1,0.7c-0.8,0.1-1.6,0.2-2.4,0.2c-1.7,0-2.5-0.5-2.5-1.4c0-1.2,0.9-2.2,2.6-3.1
			c0.6-0.3,1.2-0.5,1.9-0.7c0.6,0.1,1.1,0.3,1.3,0.3c0.5,0.1,0.7,0.5,0.7,1.1c0,0.5-0.3,0.9-1,1.3c-0.6,0.3-1.1,0.4-1.7,0.4
			c-0.9,0-1.6-0.1-2-0.4c-0.5,0.2-0.7,0.5-0.7,0.9c0,0.7,0.6,1,1.8,1c0.4,0,1,0,1.6-0.1C96.5,73.9,97.4,73.9,97.8,73.9 M96.3,71
			c-0.3-0.3-0.7-0.5-1.1-0.5c-0.3,0-0.6,0.1-0.8,0.2c0,0-0.3,0.1-0.8,0.4c0.3,0.5,0.7,0.7,1.2,0.7C95.4,71.8,95.9,71.6,96.3,71"/>
		<path class="st3" d="M108.2,68.8c0,0.4-0.3,0.8-0.8,1.4c-0.3,0.3-0.8,0.9-1.5,1.8c-0.5,0.7-0.8,1.3-0.8,1.8c0,0.3,0.2,0.4,0.6,0.4
			c0.1,0,0.2,0,0.2,0h0.1c0.2,0,0.3,0,0.5,0.1l0.2,0.2c0,0-0.3,0.1-0.7,0.2c-0.3,0.1-0.5,0.1-0.7,0.1c-0.4,0-0.7-0.1-0.9-0.3
			c-0.1-0.2-0.2-0.5-0.2-0.9v-0.3c0-0.1,0-0.2,0-0.3c-0.7,0.4-1.2,0.7-1.5,0.9c-1.3,0.7-2.3,1-3.2,1c-1,0-1.5-0.2-1.5-0.7
			c0-0.4,0.5-1.1,1.4-2.2c0.6-0.8,1.2-1.5,1.9-2.1c0.8-0.8,1.3-1.2,1.5-1.2c0.2,0,0.3,0.1,0.3,0.3c0,0.3-0.4,0.8-1.1,1.6
			c-0.3,0.3-0.8,0.9-1.4,1.6c-0.6,0.7-1.1,1.3-1.3,1.8l0.2,0.2c0.1,0,0.2,0,0.3,0c0.1,0,0.2,0,0.3,0c0.3,0,0.6-0.1,1-0.2
			c0.2-0.1,0.5-0.2,0.9-0.4c1.1-0.4,1.9-0.9,2.4-1.3c0.3-0.2,0.7-0.7,1.2-1.4c0.2-0.3,0.6-0.9,1.2-1.7c0.4-0.5,0.7-0.8,0.9-0.8
			c0.1,0,0.2,0,0.4,0.1L108.2,68.8z"/>
		<path class="st3" d="M114.7,71.4l-2.3-0.8c-0.6,0-1.1,0.4-1.5,1.2c-0.2,0.3-0.4,0.9-0.8,1.9c-0.4,1-1,1.5-1.8,1.5
			c0-0.4,0.3-1,0.8-1.7c0.5-0.8,0.8-1.3,0.9-1.7c0.1-0.3,0.1-0.8,0.2-1.5c0-0.3,0.1-0.6,0.2-0.9c0.2-0.4,0.4-0.7,0.6-0.7l0.3,0
			l0.1,1c0.1,0.3,0.3,0.4,0.7,0.4h0.5c0.1,0,0.2,0,0.2,0C113.9,70.1,114.5,70.5,114.7,71.4"/>
		<path class="st3" d="M123.9,67.7c-0.1,0.5-0.5,0.8-1.1,1c-0.4,0.1-1.1,0.3-2.1,0.5c-0.9,0.2-1.5,0.5-1.9,0.9
			c1.3,0.3,2,0.5,2.3,0.6c1.1,0.4,1.6,0.9,1.6,1.4c0,0.8-0.7,1.5-2,2.2c-1.2,0.6-2.2,0.9-3,0.9c-0.7,0-1.4-0.3-1.9-0.8
			c-0.6-0.6-0.9-1.2-0.9-1.9l0-0.2c0.3,0.1,0.7,0.5,1.2,1.3c0.5,0.7,0.9,1,1.3,1c0.6,0,1.5-0.2,2.5-0.7c1.2-0.5,1.8-1,1.8-1.6
			c0-0.4-0.3-0.7-1-0.9c0,0-0.8-0.2-2.2-0.6c-0.8-0.2-1.3-0.5-1.6-0.7c0.3-0.3,0.9-0.7,1.8-1c0.6-0.2,1.4-0.5,2.5-0.9
			c1.2-0.4,1.9-0.6,2.2-0.7C123.6,67.6,123.8,67.7,123.9,67.7"/>
		<path class="st3" d="M138.9,65.7c-0.1,0.4-0.3,1.1-0.7,2l-1.2,2.7c-0.5,1.2-0.8,2-0.9,2.4c0.5,0,0.8,0.1,0.8,0.2
			c-0.1,0.2-0.3,0.5-0.7,0.9c-0.4,0.4-0.7,0.6-0.9,0.6c-0.2,0-0.4,0-0.7-0.1c-0.3,0-0.5-0.1-0.7-0.1c-0.2,0-0.4,0-0.8,0
			c-0.3,0-0.6,0-0.8,0c-1.3,0-2-0.4-2-1.1c0-0.9,0.5-1.7,1.4-2.4c0.9-0.7,1.8-1,2.7-1c0.3,0,0.6,0.1,0.8,0.2c0.1,0,0.3,0.2,0.7,0.4
			l0.1-0.1v-0.3l0.2-0.1c0-0.3,0.2-1.2,0.8-2.6c0.6-1.4,1-2.2,1.1-2.2c0.2,0,0.3,0.1,0.5,0.2L138.9,65.7z M135.3,72
			c0-0.8-0.4-1.2-1.1-1.2c-0.5,0-1.1,0.2-1.8,0.7c-0.8,0.5-1.2,1-1.2,1.5c0,0.5,0.7,0.8,2,0.8C134.6,73.8,135.3,73.2,135.3,72"/>
		<path class="st3" d="M145,73.9c-0.3,0.3-1,0.6-2.1,0.7c-0.8,0.1-1.6,0.2-2.4,0.2c-1.7,0-2.5-0.5-2.5-1.4c0-1.2,0.9-2.2,2.6-3.1
			c0.6-0.3,1.2-0.5,1.9-0.7c0.6,0.1,1.1,0.3,1.3,0.3c0.4,0.1,0.7,0.5,0.7,1.1c0,0.5-0.3,0.9-1,1.3c-0.6,0.3-1.1,0.4-1.7,0.4
			c-0.9,0-1.6-0.1-2-0.4c-0.5,0.2-0.7,0.5-0.7,0.9c0,0.7,0.6,1,1.8,1c0.5,0,1,0,1.6-0.1C143.8,73.9,144.7,73.9,145,73.9 M143.5,71
			c-0.3-0.3-0.7-0.5-1.1-0.5c-0.3,0-0.6,0.1-0.8,0.2c0,0-0.3,0.1-0.8,0.4c0.3,0.5,0.7,0.7,1.2,0.7C142.6,71.8,143.1,71.6,143.5,71"
			/>
		<path class="st3" d="M160.8,73.9c-0.6,0.5-1.5,0.8-2.7,1.1c-1,0.2-2,0.3-3,0.3c-2.3,0-3.4-0.7-3.4-2.1c0-1.5,1.4-2.9,4.3-4.1
			c1-0.4,1.9-0.7,2.8-0.9c0.4,0.2,0.6,0.5,0.6,0.7c0,0.4-0.1,0.8-0.4,1.4c-0.3,0.6-0.6,1-0.9,1c-0.1,0-0.3,0-0.4-0.1
			c-0.1-0.1-0.2-0.2-0.2-0.3c0-0.1,0.3-0.6,0.8-1.3c-0.2,0-0.3-0.1-0.5-0.1c-0.9,0-1.9,0.4-3.1,1.1c-1.3,0.8-2,1.7-2,2.5
			c0,0.6,0.3,1.1,0.9,1.4c0.5,0.2,1.1,0.3,1.8,0.3c1.6,0,3-0.1,4.1-0.4c0,0,0.2-0.1,0.5-0.2c0.2-0.1,0.3-0.1,0.5-0.1
			c0,0,0.1,0,0.1,0l0.2-0.1L160.8,73.9L160.8,73.9z"/>
		<path class="st3" d="M170.2,72.1c0,0.9-0.7,1.7-2,2.2c-1,0.4-2.1,0.6-3.2,0.6c-2.4,0-3.6-0.6-3.6-1.8c0-0.8,0.8-1.6,2.3-2.4
			c1.4-0.7,2.6-1,3.5-1c0.8,0,1.5,0.2,2.1,0.6C169.8,70.6,170.2,71.2,170.2,72.1 M169.3,72c0-0.5-0.2-0.9-0.7-1.1
			c-0.4-0.2-0.9-0.3-1.4-0.3c-0.9,0-1.8,0.3-2.8,0.7c-1,0.5-1.7,1.1-2.2,1.9c0.7,0.7,1.5,1,2.4,1c0.9,0,1.8-0.2,2.8-0.5
			C168.7,73.3,169.3,72.7,169.3,72"/>
		<path class="st3" d="M178.1,71.2c0,0.4-0.2,0.9-0.5,1.5c-0.3,0.7-0.6,1.1-0.9,1.4c0,0.1,0,0.2,0,0.2c0,0.1,0.1,0.1,0.1,0.2
			c-0.1,0.3-0.3,0.4-0.6,0.4c-0.2,0-0.3,0-0.5-0.2c-0.1-0.1-0.2-0.2-0.2-0.4c0-0.3,0.3-0.8,0.8-1.5c0.5-0.7,0.8-1.2,0.8-1.4
			c0-0.5-0.3-0.8-0.8-0.8c-0.7,0-1.4,0.3-2,1c-0.3,0.3-0.9,1-1.8,1.9c-0.7,0.7-1.4,1.1-2,1.2v-0.1l-0.1-0.1c0-0.5,0.5-1.4,1.5-2.5
			c0.6-0.7,0.9-1.2,1.1-1.4c0.1-0.3,0.2-0.5,0.3-0.8c0.1-0.2,0.2-0.3,0.3-0.4c0.1-0.1,0.2-0.1,0.4-0.1c0.3,0,0.4,0.1,0.4,0.4
			c0,0.2,0,0.4-0.1,0.5c0,0-0.1,0.3-0.3,0.8c0.9-0.5,1.3-0.7,1.5-0.8c0.7-0.3,1.2-0.5,1.5-0.5c0.4,0,0.7,0.2,0.9,0.5
			C178,70.5,178.1,70.9,178.1,71.2"/>
		<path class="st3" d="M185,67.7c0,0.7-0.5,1.4-1.4,2.3l-2.1,1.9c0,0-0.1,0.3-0.3,0.6l-0.5,1.3c-0.3,0.8-0.8,1.2-1.3,1.2
			c-0.5,0-0.8-0.4-0.8-1.2c0-0.1,0-0.3,0-0.6c0-0.3,0-0.5,0-0.6c0-0.3-0.1-0.8-0.3-1.3c-0.2-0.6-0.3-1-0.3-1.3
			c0-0.2,0.1-0.4,0.1-0.5c0.1-0.2,0.2-0.3,0.4-0.3c0.3,0,0.6,0.6,0.8,1.7l0.4,2.2c0.3-0.3,0.8-0.9,1.6-1.8c0.4-0.4,0.7-0.8,1-1.1
			l2.4-2.4H185z"/>
		<path class="st3" d="M186.3,70.5c0,0.2-0.3,1-0.8,2.4c-0.1,0.2-0.2,0.4-0.3,0.8c-0.1,0.3-0.3,0.4-0.5,0.5c-0.1,0-0.3,0.1-0.7,0.1
			c0-0.1,0-0.2,0-0.3c0-0.1,0-0.2,0-0.3c0-0.2,0.1-0.5,0.3-0.7c0.2-0.4,0.4-0.6,0.4-0.7c0.1-0.3,0.2-0.7,0.5-1.3
			c0.2-0.4,0.4-0.8,0.8-1.1C186.1,70.2,186.3,70.4,186.3,70.5 M187.7,66.4c0,0.4-0.2,0.5-0.7,0.5c-0.4,0-0.7-0.2-0.7-0.5
			c0-0.2,0.1-0.4,0.2-0.7c0.1-0.3,0.2-0.6,0.2-0.7c0.1,0.1,0.3,0.3,0.6,0.9c0,0,0.1,0.1,0.3,0.3C187.6,66.2,187.7,66.3,187.7,66.4"
			/>
		<path class="st3" d="M194.7,67.7c0,0.7-0.5,1.4-1.4,2.3l-2.1,1.9c0,0-0.1,0.3-0.3,0.6l-0.5,1.3c-0.3,0.8-0.8,1.2-1.3,1.2
			c-0.5,0-0.8-0.4-0.8-1.2c0-0.1,0-0.3,0-0.6c0-0.3,0-0.5,0-0.6c0-0.3-0.1-0.8-0.3-1.3c-0.2-0.6-0.3-1-0.3-1.3c0-0.2,0-0.4,0.1-0.5
			c0.1-0.2,0.2-0.3,0.4-0.3c0.3,0,0.6,0.6,0.8,1.7l0.4,2.2c0.2-0.3,0.8-0.9,1.6-1.8c0.4-0.4,0.7-0.8,1-1.1l2.4-2.4H194.7z"/>
		<path class="st3" d="M196,70.5c0,0.2-0.3,1-0.8,2.4c-0.1,0.2-0.2,0.4-0.3,0.8c-0.1,0.3-0.3,0.4-0.5,0.5c-0.1,0-0.3,0.1-0.7,0.1
			c0-0.1,0-0.2,0-0.3c0-0.1,0-0.2,0-0.3c0-0.2,0.1-0.5,0.3-0.7c0.2-0.4,0.4-0.6,0.4-0.7c0.1-0.3,0.2-0.7,0.5-1.3
			c0.2-0.4,0.4-0.8,0.8-1.1C195.8,70.2,196,70.4,196,70.5 M197.4,66.4c0,0.4-0.2,0.5-0.7,0.5c-0.4,0-0.7-0.2-0.7-0.5
			c0-0.2,0.1-0.4,0.2-0.7c0.1-0.3,0.2-0.6,0.2-0.7c0.1,0.1,0.3,0.3,0.6,0.9c0,0,0.1,0.1,0.3,0.3C197.3,66.2,197.4,66.3,197.4,66.4"
			/>
		<path class="st3" d="M205,75c-0.2,0.5-0.5,0.7-0.8,0.7c-0.3,0-0.7-0.2-1.1-0.7c-0.3-0.4-0.6-0.8-0.8-1.2c-0.8,0.4-1.4,0.7-1.7,0.8
			c-0.7,0.3-1.3,0.4-1.8,0.4c-0.8,0-1.2-0.4-1.2-1.2c0-1.3,0.7-2.4,2.1-3.4c0.5-0.3,1.1-0.7,1.9-1.1c0.9-0.4,1.6-0.7,2-0.7
			c0.3,0,0.5,0.1,0.8,0.4c0.2,0.3,0.4,0.6,0.4,0.9c0,0.5-0.2,1.3-0.7,2.2c-0.4,0.9-0.7,1.4-0.7,1.5c0,0.5,0.1,0.8,0.2,1
			C203.7,74.7,204.2,74.8,205,75 M204.4,69.9c0-0.4-0.3-0.5-0.9-0.5c-0.9,0-1.7,0.2-2.3,0.6c-0.6,0.4-1.1,0.9-1.7,1.5
			c-0.8,0.8-1.1,1.4-1.1,1.9c0,0.3,0.1,0.5,0.4,0.6c0.2,0.1,0.5,0.2,0.8,0.2c0.9,0,1.6-0.3,2.2-0.9c0.2-0.2,0.6-0.7,1.3-1.7
			c0.4-0.6,0.8-0.9,1.2-0.9C204.4,70.4,204.4,70.2,204.4,69.9 M204.9,75.3L204.9,75.3L204.9,75.3L204.9,75.3L204.9,75.3v-0.2h0.1v0
			h0v0h0L204.9,75.3L204.9,75.3z"/>
		<path class="st3" d="M210.6,65.2c0,0.1-0.3,0.7-1,1.9l-1.9,3.6c-0.8,1.5-1.3,2.4-1.3,2.6l-0.3,1c-0.2,0.4-0.4,0.6-0.7,0.6
			c-0.1,0-0.3,0-0.5-0.1l-0.2-0.3c0.1-0.5,0.5-1.3,1.1-2.3l1.9-3.1c0.7-1.2,1.2-2.2,1.5-3c0-0.2,0.1-0.5,0.3-0.9
			c0.1-0.3,0.3-0.5,0.6-0.7c0.1,0,0.3,0.1,0.4,0.3C210.5,64.9,210.6,65,210.6,65.2"/>
		<path class="st3" d="M212.1,70.5c0,0.2-0.3,1-0.8,2.4c-0.1,0.2-0.2,0.4-0.3,0.8c-0.1,0.3-0.3,0.4-0.5,0.5c-0.1,0-0.3,0.1-0.7,0.1
			c0-0.1,0-0.2,0-0.3c0-0.1,0-0.2,0-0.3c0-0.2,0.1-0.5,0.3-0.7c0.2-0.4,0.4-0.6,0.4-0.7c0.1-0.3,0.2-0.7,0.5-1.3
			c0.2-0.4,0.4-0.8,0.8-1.1C211.9,70.2,212.1,70.4,212.1,70.5 M213.5,66.4c0,0.4-0.2,0.5-0.7,0.5c-0.4,0-0.7-0.2-0.7-0.5
			c0-0.2,0.1-0.4,0.2-0.7c0.1-0.3,0.2-0.6,0.2-0.7c0.1,0.1,0.3,0.3,0.6,0.9c0,0,0.1,0.1,0.3,0.3C213.4,66.2,213.5,66.3,213.5,66.4"
			/>
		<path class="st3" d="M220.4,65.9c0,0.3-0.1,0.5-0.3,0.8c-0.1,0.1-0.4,0.6-0.9,1.3c0.3,0.2,0.5,0.3,0.8,0.5
			c0.3,0.2,0.4,0.5,0.4,0.8l0,0.2c0,0-0.2-0.1-0.7-0.2c-0.3-0.1-0.5-0.1-0.7-0.1c-0.5,0-1.3,0.6-2.4,1.7c-1,1.2-1.5,2-1.5,2.6
			c0,0.5,0.4,0.8,1.3,1.1c0.6,0.1,1.2,0.2,1.9,0.2c0.3,0,0.5,0,0.8-0.1c0,0.1,0,0.1,0.1,0.3c-0.6,0.2-1.2,0.4-1.9,0.4
			c-2.2,0-3.4-0.6-3.4-1.6c0-0.6,0.6-1.6,1.7-2.9l1.3-1.4l-0.5,0c-0.2,0-0.5,0.1-0.9,0.2c-0.7,0.3-1.2,0.4-1.3,0.4
			c-0.2,0-0.3-0.1-0.5-0.2c-0.1-0.1-0.2-0.2-0.2-0.4c0-0.4,0.4-0.6,1.3-0.6c0.1,0,0.2,0,0.4,0c0.2,0,0.3,0,0.4,0
			c0.8,0,1.4-0.1,1.9-0.4c0.5-0.3,0.9-0.7,1.3-1.3c0.1-0.2,0.4-0.8,0.9-1.9c0.1,0,0.3,0.1,0.4,0.3C220.3,65.6,220.4,65.7,220.4,65.9
			"/>
		<path class="st3" d="M227.7,73.9c-0.3,0.3-1,0.6-2.1,0.7c-0.8,0.1-1.6,0.2-2.4,0.2c-1.7,0-2.5-0.5-2.5-1.4c0-1.2,0.9-2.2,2.6-3.1
			c0.6-0.3,1.2-0.5,1.9-0.7c0.6,0.1,1.1,0.3,1.3,0.3c0.4,0.1,0.7,0.5,0.7,1.1c0,0.5-0.3,0.9-1,1.3c-0.6,0.3-1.1,0.4-1.7,0.4
			c-0.9,0-1.6-0.1-2-0.4c-0.5,0.2-0.7,0.5-0.7,0.9c0,0.7,0.6,1,1.8,1c0.4,0,1,0,1.6-0.1C226.4,73.9,227.3,73.9,227.7,73.9 M226.1,71
			c-0.3-0.3-0.7-0.5-1.1-0.5c-0.3,0-0.6,0.1-0.8,0.2c0,0-0.3,0.1-0.8,0.4c0.3,0.5,0.7,0.7,1.2,0.7C225.3,71.8,225.7,71.6,226.1,71
			 M226.5,68c-0.6,0.6-1,0.9-1.2,0.9c-0.1,0-0.2,0-0.4-0.1c0,0-0.2-0.1-0.4-0.2l0.1-0.2c0.1-0.2,0.5-0.7,1.1-1.3l0.7-0.7
			c0.3-0.3,0.6-0.4,0.8-0.4c0.3,0,0.4,0.1,0.4,0.4C227.7,66.7,227.3,67.2,226.5,68"/>
	</g>
</g>
</svg>
